<svg width="620" height="320" viewBox="0 0 620 320" fill="none" xmlns="http://www.w3.org/2000/svg">
<g clip-path="url(#clip0_35264_79521)">
<rect width="620" height="320" fill="#E8E9EC"/>
<rect width="363" height="231" transform="matrix(-1 0 0 -1 936 273)" fill="url(#paint0_linear_35264_79521)"/>
<path d="M68.312 154.144H75.536L92.224 177.104V154.144H100.792V192H93.568L76.88 168.984V192H68.312V154.144ZM122.821 192.672C119.722 192.672 117.034 192.019 114.757 190.712C112.48 189.405 110.725 187.576 109.493 185.224C108.261 182.872 107.645 180.165 107.645 177.104C107.645 174.229 108.28 171.635 109.549 169.32C110.818 167.005 112.554 165.195 114.757 163.888C116.997 162.581 119.498 161.928 122.261 161.928C125.024 161.928 127.432 162.563 129.485 163.832C131.538 165.101 133.106 166.912 134.189 169.264C135.309 171.579 135.869 174.285 135.869 177.384V179.512H115.317C115.653 181.491 116.53 183.059 117.949 184.216C119.405 185.336 121.197 185.896 123.325 185.896C126.162 185.896 128.458 184.981 130.213 183.152L134.861 187.52C131.65 190.955 127.637 192.672 122.821 192.672ZM128.029 174.024C127.917 172.195 127.357 170.795 126.349 169.824C125.341 168.816 123.922 168.312 122.093 168.312C120.376 168.312 118.938 168.816 117.781 169.824C116.661 170.832 115.896 172.232 115.485 174.024H128.029ZM154.34 204.6C151.428 204.6 148.796 204.152 146.444 203.256C144.13 202.36 142.263 201.128 140.844 199.56L145.044 194.352C147.396 196.517 150.364 197.6 153.948 197.6C156.226 197.6 158.092 196.872 159.548 195.416C161.042 193.96 161.788 192 161.788 189.536V187.576C159.324 189.741 156.524 190.824 153.388 190.824C150.887 190.824 148.666 190.264 146.724 189.144C144.783 188.024 143.252 186.419 142.132 184.328C141.05 182.2 140.508 179.717 140.508 176.88C140.508 173.931 141.143 171.317 142.412 169.04C143.682 166.763 145.399 165.008 147.564 163.776C149.767 162.544 152.194 161.928 154.844 161.928C156.338 161.928 157.812 162.208 159.268 162.768C160.762 163.328 162.087 164.093 163.244 165.064L164.028 162.6H170.188V189.592C170.188 192.504 169.516 195.099 168.172 197.376C166.866 199.653 164.999 201.427 162.572 202.696C160.183 203.965 157.439 204.6 154.34 204.6ZM155.404 184.048C156.636 184.048 157.794 183.749 158.876 183.152C159.959 182.517 160.93 181.696 161.788 180.688V170.776C160.183 169.507 158.335 168.872 156.244 168.872C153.967 168.872 152.138 169.544 150.756 170.888C149.412 172.232 148.74 174.211 148.74 176.824C148.74 179.064 149.338 180.837 150.532 182.144C151.727 183.413 153.351 184.048 155.404 184.048ZM191.563 192.672C188.651 192.672 186.038 192.037 183.723 190.768C181.446 189.461 179.654 187.651 178.347 185.336C177.041 182.984 176.387 180.277 176.387 177.216C176.387 174.267 177.041 171.635 178.347 169.32C179.691 167.005 181.502 165.195 183.779 163.888C186.094 162.581 188.689 161.928 191.563 161.928C194.475 161.928 197.089 162.581 199.403 163.888C201.718 165.157 203.529 166.968 204.835 169.32C206.179 171.635 206.851 174.285 206.851 177.272C206.851 180.259 206.179 182.928 204.835 185.28C203.529 187.632 201.699 189.461 199.347 190.768C197.033 192.037 194.438 192.672 191.563 192.672ZM191.507 185.392C193.673 185.392 195.39 184.664 196.659 183.208C197.929 181.715 198.563 179.736 198.563 177.272C198.563 174.845 197.929 172.904 196.659 171.448C195.427 169.955 193.747 169.208 191.619 169.208C189.491 169.208 187.793 169.936 186.523 171.392C185.291 172.848 184.675 174.789 184.675 177.216C184.675 179.717 185.291 181.715 186.523 183.208C187.755 184.664 189.417 185.392 191.507 185.392ZM226.775 192.672C223.826 192.672 221.213 192.056 218.935 190.824C216.695 189.592 214.959 187.819 213.727 185.504C212.495 183.152 211.879 180.389 211.879 177.216C211.879 174.341 212.514 171.747 213.783 169.432C215.09 167.117 216.882 165.288 219.159 163.944C221.474 162.6 224.05 161.928 226.887 161.928C229.09 161.928 231.143 162.376 233.047 163.272C234.951 164.168 236.501 165.363 237.695 166.856L232.991 171.896C232.17 171.037 231.293 170.384 230.359 169.936C229.463 169.451 228.418 169.208 227.223 169.208C225.095 169.208 223.378 169.955 222.071 171.448C220.802 172.904 220.167 174.827 220.167 177.216C220.167 179.643 220.821 181.621 222.127 183.152C223.434 184.645 225.114 185.392 227.167 185.392C229.445 185.392 231.517 184.459 233.383 182.592L238.031 187.688C236.65 189.256 234.989 190.488 233.047 191.384C231.143 192.243 229.053 192.672 226.775 192.672ZM243.244 162.6H251.644V192H243.244V162.6ZM247.444 158.736C246.026 158.736 244.85 158.325 243.916 157.504C242.983 156.645 242.516 155.544 242.516 154.2C242.516 152.893 242.983 151.829 243.916 151.008C244.85 150.149 246.026 149.72 247.444 149.72C248.863 149.72 250.039 150.149 250.972 151.008C251.943 151.829 252.428 152.893 252.428 154.2C252.428 155.544 251.962 156.645 251.028 157.504C250.095 158.325 248.9 158.736 247.444 158.736ZM267.502 192.672C264.441 192.672 262.033 191.907 260.278 190.376C258.524 188.808 257.646 186.643 257.646 183.88C257.646 181.08 258.729 178.877 260.894 177.272C263.097 175.667 266.196 174.864 270.19 174.864H276.126C276.089 170.72 274.185 168.648 270.414 168.648C268.996 168.648 267.614 168.891 266.27 169.376C264.964 169.861 263.769 170.571 262.686 171.504L258.598 166.688C260.241 165.195 262.108 164.037 264.198 163.216C266.326 162.357 268.492 161.928 270.694 161.928C274.988 161.928 278.236 163.085 280.438 165.4C282.678 167.715 283.798 171.075 283.798 175.48V192H277.974L276.91 188.64C275.566 189.909 274.092 190.899 272.486 191.608C270.881 192.317 269.22 192.672 267.502 192.672ZM268.846 186.512C271.609 186.512 274.036 185.373 276.126 183.096V180.24H269.91C268.38 180.24 267.166 180.539 266.27 181.136C265.412 181.696 264.982 182.48 264.982 183.488C264.982 184.347 265.337 185.075 266.046 185.672C266.793 186.232 267.726 186.512 268.846 186.512ZM315.742 187.688C313.465 190.264 310.628 191.851 307.23 192.448C308.201 193.643 308.686 195.005 308.686 196.536C308.686 198.664 307.865 200.325 306.222 201.52C304.58 202.715 302.358 203.312 299.558 203.312H297.598V197.992H299.334C300.38 197.992 301.182 197.787 301.742 197.376C302.34 196.965 302.638 196.368 302.638 195.584C302.638 194.949 302.526 194.408 302.302 193.96C302.116 193.549 301.78 193.027 301.294 192.392C297.673 191.757 294.817 190.115 292.726 187.464C290.636 184.813 289.59 181.397 289.59 177.216C289.59 174.341 290.225 171.747 291.494 169.432C292.801 167.117 294.593 165.288 296.87 163.944C299.185 162.6 301.761 161.928 304.598 161.928C306.801 161.928 308.854 162.376 310.758 163.272C312.662 164.168 314.212 165.363 315.406 166.856L310.702 171.896C309.881 171.037 309.004 170.384 308.07 169.936C307.174 169.451 306.129 169.208 304.934 169.208C302.806 169.208 301.089 169.955 299.782 171.448C298.513 172.904 297.878 174.827 297.878 177.216C297.878 179.643 298.532 181.621 299.838 183.152C301.145 184.645 302.825 185.392 304.878 185.392C307.156 185.392 309.228 184.459 311.094 182.592L315.742 187.688ZM329.19 192.672C326.128 192.672 323.72 191.907 321.966 190.376C320.211 188.808 319.334 186.643 319.334 183.88C319.334 181.08 320.416 178.877 322.582 177.272C324.784 175.667 327.883 174.864 331.878 174.864H337.814C337.776 170.72 335.872 168.648 332.102 168.648C330.683 168.648 329.302 168.891 327.958 169.376C326.651 169.861 325.456 170.571 324.374 171.504L320.286 166.688C321.928 165.195 323.795 164.037 325.886 163.216C328.014 162.357 330.179 161.928 332.382 161.928C336.675 161.928 339.923 163.085 342.126 165.4C344.366 167.715 345.486 171.075 345.486 175.48V192H339.662L338.598 188.64C337.254 189.909 335.779 190.899 334.174 191.608C332.568 192.317 330.907 192.672 329.19 192.672ZM330.534 186.512C333.296 186.512 335.723 185.373 337.814 183.096V180.24H331.598C330.067 180.24 328.854 180.539 327.958 181.136C327.099 181.696 326.67 182.48 326.67 183.488C326.67 184.347 327.024 185.075 327.734 185.672C328.48 186.232 329.414 186.512 330.534 186.512ZM337.59 158.624C336.731 158.624 335.966 158.512 335.294 158.288C334.622 158.027 333.856 157.653 332.998 157.168C332.176 156.645 331.448 156.253 330.814 155.992C330.216 155.731 329.582 155.6 328.91 155.6C327.976 155.6 327.08 155.768 326.222 156.104C325.4 156.44 324.504 156.944 323.534 157.616V152.128C324.504 151.419 325.4 150.877 326.222 150.504C327.08 150.131 327.995 149.944 328.966 149.944C329.862 149.944 330.646 150.075 331.318 150.336C331.99 150.56 332.774 150.933 333.67 151.456C334.715 152.016 335.499 152.408 336.022 152.632C336.544 152.856 337.123 152.968 337.758 152.968C338.84 152.968 339.774 152.8 340.558 152.464C341.379 152.091 342.275 151.568 343.246 150.896V156.496C342.238 157.168 341.304 157.691 340.446 158.064C339.624 158.437 338.672 158.624 337.59 158.624ZM366.454 192.672C363.542 192.672 360.928 192.037 358.614 190.768C356.336 189.461 354.544 187.651 353.238 185.336C351.931 182.984 351.278 180.277 351.278 177.216C351.278 174.267 351.931 171.635 353.238 169.32C354.582 167.005 356.392 165.195 358.67 163.888C360.984 162.581 363.579 161.928 366.454 161.928C369.366 161.928 371.979 162.581 374.294 163.888C376.608 165.157 378.419 166.968 379.726 169.32C381.07 171.635 381.742 174.285 381.742 177.272C381.742 180.259 381.07 182.928 379.726 185.28C378.419 187.632 376.59 189.461 374.238 190.768C371.923 192.037 369.328 192.672 366.454 192.672ZM366.398 185.392C368.563 185.392 370.28 184.664 371.55 183.208C372.819 181.715 373.454 179.736 373.454 177.272C373.454 174.845 372.819 172.904 371.55 171.448C370.318 169.955 368.638 169.208 366.51 169.208C364.382 169.208 362.683 169.936 361.414 171.392C360.182 172.848 359.566 174.789 359.566 177.216C359.566 179.717 360.182 181.715 361.414 183.208C362.646 184.664 364.307 185.392 366.398 185.392Z" fill="#4D4E53"/>
<path d="M73.4102 247L69.2852 233.559H69.1797C69.1953 233.879 69.2188 234.363 69.25 235.012C69.2891 235.652 69.3242 236.336 69.3555 237.062C69.3867 237.789 69.4023 238.445 69.4023 239.031V247H66.1562V229.867H71.1016L75.1562 242.969H75.2266L79.5273 229.867H84.4727V247H81.0859V238.891C81.0859 238.352 81.0938 237.73 81.1094 237.027C81.1328 236.324 81.1602 235.656 81.1914 235.023C81.2227 234.383 81.2461 233.902 81.2617 233.582H81.1562L76.7383 247H73.4102ZM102.238 229.867L96.4141 247H92.4531L86.6406 229.867H90.3086L93.5312 240.062C93.5859 240.234 93.6758 240.559 93.8008 241.035C93.9258 241.504 94.0508 242.004 94.1758 242.535C94.3086 243.059 94.3984 243.492 94.4453 243.836C94.4922 243.492 94.5742 243.059 94.6914 242.535C94.8164 242.012 94.9375 241.516 95.0547 241.047C95.1797 240.57 95.2695 240.242 95.3242 240.062L98.5703 229.867H102.238ZM109.879 229.867C112.09 229.867 113.703 230.344 114.719 231.297C115.734 232.242 116.242 233.547 116.242 235.211C116.242 235.961 116.129 236.68 115.902 237.367C115.676 238.047 115.305 238.652 114.789 239.184C114.281 239.715 113.602 240.137 112.75 240.449C111.898 240.754 110.848 240.906 109.598 240.906H108.039V247H104.406V229.867H109.879ZM109.691 232.844H108.039V237.93H109.234C109.914 237.93 110.504 237.84 111.004 237.66C111.504 237.48 111.891 237.199 112.164 236.816C112.438 236.434 112.574 235.941 112.574 235.34C112.574 234.496 112.34 233.871 111.871 233.465C111.402 233.051 110.676 232.844 109.691 232.844Z" fill="#CC092F"/>
<line x1="133.5" y1="254" x2="133.5" y2="221" stroke="#D2D4DA"/>
<path d="M167.355 247H162.738L155.285 234.039H155.18C155.211 234.578 155.238 235.121 155.262 235.668C155.285 236.215 155.309 236.762 155.332 237.309C155.355 237.848 155.379 238.391 155.402 238.938V247H152.156V229.867H156.738L164.18 242.699H164.262C164.246 242.168 164.227 241.641 164.203 241.117C164.18 240.594 164.156 240.07 164.133 239.547C164.117 239.023 164.102 238.5 164.086 237.977V229.867H167.355V247ZM176.801 233.652C178.012 233.652 179.055 233.887 179.93 234.355C180.805 234.816 181.48 235.488 181.957 236.371C182.434 237.254 182.672 238.332 182.672 239.605V241.34H174.223C174.262 242.348 174.562 243.141 175.125 243.719C175.695 244.289 176.484 244.574 177.492 244.574C178.328 244.574 179.094 244.488 179.789 244.316C180.484 244.145 181.199 243.887 181.934 243.543V246.309C181.285 246.629 180.605 246.863 179.895 247.012C179.191 247.16 178.336 247.234 177.328 247.234C176.016 247.234 174.852 246.992 173.836 246.508C172.828 246.023 172.035 245.285 171.457 244.293C170.887 243.301 170.602 242.051 170.602 240.543C170.602 239.012 170.859 237.738 171.375 236.723C171.898 235.699 172.625 234.934 173.555 234.426C174.484 233.91 175.566 233.652 176.801 233.652ZM176.824 236.195C176.129 236.195 175.551 236.418 175.09 236.863C174.637 237.309 174.375 238.008 174.305 238.961H179.32C179.312 238.43 179.215 237.957 179.027 237.543C178.848 237.129 178.574 236.801 178.207 236.559C177.848 236.316 177.387 236.195 176.824 236.195ZM189.41 252.766C187.582 252.766 186.184 252.445 185.215 251.805C184.254 251.172 183.773 250.281 183.773 249.133C183.773 248.344 184.02 247.684 184.512 247.152C185.004 246.621 185.727 246.242 186.68 246.016C186.312 245.859 185.992 245.605 185.719 245.254C185.445 244.895 185.309 244.516 185.309 244.117C185.309 243.617 185.453 243.203 185.742 242.875C186.031 242.539 186.449 242.211 186.996 241.891C186.309 241.594 185.762 241.117 185.355 240.461C184.957 239.805 184.758 239.031 184.758 238.141C184.758 237.188 184.965 236.379 185.379 235.715C185.801 235.043 186.41 234.531 187.207 234.18C188.012 233.828 188.988 233.652 190.137 233.652C190.379 233.652 190.66 233.668 190.98 233.699C191.301 233.73 191.594 233.766 191.859 233.805C192.133 233.844 192.316 233.875 192.41 233.898H196.98V235.715L194.93 236.242C195.117 236.531 195.258 236.84 195.352 237.168C195.445 237.496 195.492 237.844 195.492 238.211C195.492 239.617 195 240.715 194.016 241.504C193.039 242.285 191.68 242.676 189.938 242.676C189.523 242.652 189.133 242.621 188.766 242.582C188.586 242.723 188.449 242.871 188.355 243.027C188.262 243.184 188.215 243.348 188.215 243.52C188.215 243.691 188.285 243.836 188.426 243.953C188.574 244.062 188.793 244.148 189.082 244.211C189.379 244.266 189.746 244.293 190.184 244.293H192.41C193.848 244.293 194.941 244.602 195.691 245.219C196.449 245.836 196.828 246.742 196.828 247.938C196.828 249.469 196.188 250.656 194.906 251.5C193.633 252.344 191.801 252.766 189.41 252.766ZM189.562 250.434C190.414 250.434 191.145 250.352 191.754 250.188C192.371 250.031 192.844 249.805 193.172 249.508C193.5 249.219 193.664 248.871 193.664 248.465C193.664 248.137 193.566 247.875 193.371 247.68C193.184 247.492 192.895 247.359 192.504 247.281C192.121 247.203 191.629 247.164 191.027 247.164H189.176C188.738 247.164 188.344 247.234 187.992 247.375C187.648 247.516 187.375 247.711 187.172 247.961C186.969 248.219 186.867 248.516 186.867 248.852C186.867 249.344 187.102 249.73 187.57 250.012C188.047 250.293 188.711 250.434 189.562 250.434ZM190.137 240.496C190.809 240.496 191.301 240.289 191.613 239.875C191.926 239.461 192.082 238.898 192.082 238.188C192.082 237.398 191.918 236.809 191.59 236.418C191.27 236.02 190.785 235.82 190.137 235.82C189.48 235.82 188.988 236.02 188.66 236.418C188.332 236.809 188.168 237.398 188.168 238.188C188.168 238.898 188.328 239.461 188.648 239.875C188.977 240.289 189.473 240.496 190.137 240.496ZM211.055 240.426C211.055 241.52 210.906 242.488 210.609 243.332C210.32 244.176 209.895 244.891 209.332 245.477C208.777 246.055 208.105 246.492 207.316 246.789C206.535 247.086 205.652 247.234 204.668 247.234C203.746 247.234 202.898 247.086 202.125 246.789C201.359 246.492 200.691 246.055 200.121 245.477C199.559 244.891 199.121 244.176 198.809 243.332C198.504 242.488 198.352 241.52 198.352 240.426C198.352 238.973 198.609 237.742 199.125 236.734C199.641 235.727 200.375 234.961 201.328 234.438C202.281 233.914 203.418 233.652 204.738 233.652C205.965 233.652 207.051 233.914 207.996 234.438C208.949 234.961 209.695 235.727 210.234 236.734C210.781 237.742 211.055 238.973 211.055 240.426ZM201.996 240.426C201.996 241.285 202.09 242.008 202.277 242.594C202.465 243.18 202.758 243.621 203.156 243.918C203.555 244.215 204.074 244.363 204.715 244.363C205.348 244.363 205.859 244.215 206.25 243.918C206.648 243.621 206.938 243.18 207.117 242.594C207.305 242.008 207.398 241.285 207.398 240.426C207.398 239.559 207.305 238.84 207.117 238.27C206.938 237.691 206.648 237.258 206.25 236.969C205.852 236.68 205.332 236.535 204.691 236.535C203.746 236.535 203.059 236.859 202.629 237.508C202.207 238.156 201.996 239.129 201.996 240.426ZM219.328 247.234C218.031 247.234 216.926 247 216.012 246.531C215.098 246.055 214.402 245.32 213.926 244.328C213.449 243.336 213.211 242.066 213.211 240.52C213.211 238.918 213.48 237.613 214.02 236.605C214.566 235.59 215.32 234.844 216.281 234.367C217.25 233.891 218.371 233.652 219.645 233.652C220.551 233.652 221.332 233.742 221.988 233.922C222.652 234.094 223.23 234.301 223.723 234.543L222.668 237.309C222.105 237.082 221.582 236.898 221.098 236.758C220.613 236.609 220.129 236.535 219.645 236.535C219.02 236.535 218.5 236.684 218.086 236.98C217.672 237.27 217.363 237.707 217.16 238.293C216.957 238.879 216.855 239.613 216.855 240.496C216.855 241.363 216.965 242.082 217.184 242.652C217.402 243.223 217.719 243.648 218.133 243.93C218.547 244.203 219.051 244.34 219.645 244.34C220.387 244.34 221.047 244.242 221.625 244.047C222.203 243.844 222.766 243.562 223.312 243.203V246.262C222.766 246.605 222.191 246.852 221.59 247C220.996 247.156 220.242 247.234 219.328 247.234ZM229.934 233.898V247H226.359V233.898H229.934ZM228.152 228.766C228.684 228.766 229.141 228.891 229.523 229.141C229.906 229.383 230.098 229.84 230.098 230.512C230.098 231.176 229.906 231.637 229.523 231.895C229.141 232.145 228.684 232.27 228.152 232.27C227.613 232.27 227.152 232.145 226.77 231.895C226.395 231.637 226.207 231.176 226.207 230.512C226.207 229.84 226.395 229.383 226.77 229.141C227.152 228.891 227.613 228.766 228.152 228.766ZM239.062 233.629C240.82 233.629 242.168 234.012 243.105 234.777C244.043 235.543 244.512 236.707 244.512 238.27V247H242.016L241.324 245.219H241.23C240.855 245.688 240.473 246.07 240.082 246.367C239.691 246.664 239.242 246.883 238.734 247.023C238.227 247.164 237.609 247.234 236.883 247.234C236.109 247.234 235.414 247.086 234.797 246.789C234.188 246.492 233.707 246.039 233.355 245.43C233.004 244.812 232.828 244.031 232.828 243.086C232.828 241.695 233.316 240.672 234.293 240.016C235.27 239.352 236.734 238.984 238.688 238.914L240.961 238.844V238.27C240.961 237.582 240.781 237.078 240.422 236.758C240.062 236.438 239.562 236.277 238.922 236.277C238.289 236.277 237.668 236.367 237.059 236.547C236.449 236.727 235.84 236.953 235.23 237.227L234.047 234.812C234.742 234.445 235.52 234.156 236.379 233.945C237.246 233.734 238.141 233.629 239.062 233.629ZM240.961 240.93L239.578 240.977C238.422 241.008 237.617 241.215 237.164 241.598C236.719 241.98 236.496 242.484 236.496 243.109C236.496 243.656 236.656 244.047 236.977 244.281C237.297 244.508 237.715 244.621 238.23 244.621C238.996 244.621 239.641 244.395 240.164 243.941C240.695 243.488 240.961 242.844 240.961 242.008V240.93ZM253.523 247.234C252.227 247.234 251.121 247 250.207 246.531C249.293 246.055 248.598 245.32 248.121 244.328C247.645 243.336 247.406 242.066 247.406 240.52C247.406 238.918 247.676 237.613 248.215 236.605C248.762 235.59 249.516 234.844 250.477 234.367C251.445 233.891 252.566 233.652 253.84 233.652C254.746 233.652 255.527 233.742 256.184 233.922C256.848 234.094 257.426 234.301 257.918 234.543L256.863 237.309C256.301 237.082 255.777 236.898 255.293 236.758C254.809 236.609 254.324 236.535 253.84 236.535C253.215 236.535 252.695 236.684 252.281 236.98C251.867 237.27 251.559 237.707 251.355 238.293C251.152 238.879 251.051 239.613 251.051 240.496C251.051 241.363 251.16 242.082 251.379 242.652C251.598 243.223 251.914 243.648 252.328 243.93C252.742 244.203 253.246 244.34 253.84 244.34C254.582 244.34 255.242 244.242 255.82 244.047C256.398 243.844 256.961 243.562 257.508 243.203V246.262C256.961 246.605 256.387 246.852 255.785 247C255.191 247.156 254.438 247.234 253.523 247.234ZM256.102 249.93C256.102 250.828 255.84 251.523 255.316 252.016C254.793 252.516 253.848 252.766 252.48 252.766C252.129 252.766 251.812 252.742 251.531 252.695C251.25 252.648 250.996 252.59 250.77 252.52V250.551C250.996 250.605 251.273 250.66 251.602 250.715C251.93 250.77 252.211 250.797 252.445 250.797C252.672 250.797 252.867 250.742 253.031 250.633C253.203 250.531 253.289 250.344 253.289 250.07C253.289 249.781 253.145 249.523 252.855 249.297C252.566 249.07 252.062 248.906 251.344 248.805L252.258 247H254.52L254.203 247.715C254.523 247.816 254.828 247.965 255.117 248.16C255.406 248.363 255.641 248.609 255.82 248.898C256.008 249.195 256.102 249.539 256.102 249.93ZM265.922 233.629C267.68 233.629 269.027 234.012 269.965 234.777C270.902 235.543 271.371 236.707 271.371 238.27V247H268.875L268.184 245.219H268.09C267.715 245.688 267.332 246.07 266.941 246.367C266.551 246.664 266.102 246.883 265.594 247.023C265.086 247.164 264.469 247.234 263.742 247.234C262.969 247.234 262.273 247.086 261.656 246.789C261.047 246.492 260.566 246.039 260.215 245.43C259.863 244.812 259.688 244.031 259.688 243.086C259.688 241.695 260.176 240.672 261.152 240.016C262.129 239.352 263.594 238.984 265.547 238.914L267.82 238.844V238.27C267.82 237.582 267.641 237.078 267.281 236.758C266.922 236.438 266.422 236.277 265.781 236.277C265.148 236.277 264.527 236.367 263.918 236.547C263.309 236.727 262.699 236.953 262.09 237.227L260.906 234.812C261.602 234.445 262.379 234.156 263.238 233.945C264.105 233.734 265 233.629 265.922 233.629ZM267.82 240.93L266.438 240.977C265.281 241.008 264.477 241.215 264.023 241.598C263.578 241.98 263.355 242.484 263.355 243.109C263.355 243.656 263.516 244.047 263.836 244.281C264.156 244.508 264.574 244.621 265.09 244.621C265.855 244.621 266.5 244.395 267.023 243.941C267.555 243.488 267.82 242.844 267.82 242.008V240.93ZM261.059 232.48C261.105 231.855 261.219 231.316 261.398 230.863C261.578 230.402 261.812 230.027 262.102 229.738C262.391 229.441 262.715 229.223 263.074 229.082C263.441 228.934 263.832 228.859 264.246 228.859C264.566 228.859 264.879 228.922 265.184 229.047C265.496 229.164 265.801 229.305 266.098 229.469C266.402 229.633 266.699 229.777 266.988 229.902C267.285 230.02 267.574 230.078 267.855 230.078C268.09 230.078 268.316 229.977 268.535 229.773C268.762 229.562 268.926 229.25 269.027 228.836H270.773C270.68 230.07 270.328 230.984 269.719 231.578C269.109 232.164 268.398 232.457 267.586 232.457C267.266 232.457 266.949 232.395 266.637 232.27C266.332 232.145 266.027 232.004 265.723 231.848C265.426 231.684 265.133 231.539 264.844 231.414C264.555 231.289 264.27 231.227 263.988 231.227C263.746 231.227 263.512 231.332 263.285 231.543C263.066 231.746 262.906 232.059 262.805 232.48H261.059ZM286.969 240.426C286.969 241.52 286.82 242.488 286.523 243.332C286.234 244.176 285.809 244.891 285.246 245.477C284.691 246.055 284.02 246.492 283.23 246.789C282.449 247.086 281.566 247.234 280.582 247.234C279.66 247.234 278.812 247.086 278.039 246.789C277.273 246.492 276.605 246.055 276.035 245.477C275.473 244.891 275.035 244.176 274.723 243.332C274.418 242.488 274.266 241.52 274.266 240.426C274.266 238.973 274.523 237.742 275.039 236.734C275.555 235.727 276.289 234.961 277.242 234.438C278.195 233.914 279.332 233.652 280.652 233.652C281.879 233.652 282.965 233.914 283.91 234.438C284.863 234.961 285.609 235.727 286.148 236.734C286.695 237.742 286.969 238.973 286.969 240.426ZM277.91 240.426C277.91 241.285 278.004 242.008 278.191 242.594C278.379 243.18 278.672 243.621 279.07 243.918C279.469 244.215 279.988 244.363 280.629 244.363C281.262 244.363 281.773 244.215 282.164 243.918C282.562 243.621 282.852 243.18 283.031 242.594C283.219 242.008 283.312 241.285 283.312 240.426C283.312 239.559 283.219 238.84 283.031 238.27C282.852 237.691 282.562 237.258 282.164 236.969C281.766 236.68 281.246 236.535 280.605 236.535C279.66 236.535 278.973 236.859 278.543 237.508C278.121 238.156 277.91 239.129 277.91 240.426ZM303.598 233.652C304.996 233.652 306.121 234.035 306.973 234.801C307.824 235.559 308.25 236.777 308.25 238.457V247H304.676V239.348C304.676 238.41 304.504 237.703 304.16 237.227C303.824 236.75 303.293 236.512 302.566 236.512C301.473 236.512 300.727 236.883 300.328 237.625C299.93 238.367 299.73 239.438 299.73 240.836V247H296.156V233.898H298.887L299.367 235.574H299.566C299.848 235.121 300.195 234.754 300.609 234.473C301.031 234.191 301.496 233.984 302.004 233.852C302.52 233.719 303.051 233.652 303.598 233.652ZM323.836 240.426C323.836 241.52 323.688 242.488 323.391 243.332C323.102 244.176 322.676 244.891 322.113 245.477C321.559 246.055 320.887 246.492 320.098 246.789C319.316 247.086 318.434 247.234 317.449 247.234C316.527 247.234 315.68 247.086 314.906 246.789C314.141 246.492 313.473 246.055 312.902 245.477C312.34 244.891 311.902 244.176 311.59 243.332C311.285 242.488 311.133 241.52 311.133 240.426C311.133 238.973 311.391 237.742 311.906 236.734C312.422 235.727 313.156 234.961 314.109 234.438C315.062 233.914 316.199 233.652 317.52 233.652C318.746 233.652 319.832 233.914 320.777 234.438C321.73 234.961 322.477 235.727 323.016 236.734C323.562 237.742 323.836 238.973 323.836 240.426ZM314.777 240.426C314.777 241.285 314.871 242.008 315.059 242.594C315.246 243.18 315.539 243.621 315.938 243.918C316.336 244.215 316.855 244.363 317.496 244.363C318.129 244.363 318.641 244.215 319.031 243.918C319.43 243.621 319.719 243.18 319.898 242.594C320.086 242.008 320.18 241.285 320.18 240.426C320.18 239.559 320.086 238.84 319.898 238.27C319.719 237.691 319.43 237.258 319.031 236.969C318.633 236.68 318.113 236.535 317.473 236.535C316.527 236.535 315.84 236.859 315.41 237.508C314.988 238.156 314.777 239.129 314.777 240.426ZM339.809 237.379H346.605V246.262C345.707 246.559 344.773 246.797 343.805 246.977C342.836 247.148 341.738 247.234 340.512 247.234C338.809 247.234 337.363 246.898 336.176 246.227C334.988 245.555 334.086 244.562 333.469 243.25C332.852 241.938 332.543 240.324 332.543 238.41C332.543 236.613 332.887 235.059 333.574 233.746C334.27 232.434 335.281 231.418 336.609 230.699C337.945 229.98 339.574 229.621 341.496 229.621C342.402 229.621 343.297 229.719 344.18 229.914C345.062 230.109 345.863 230.363 346.582 230.676L345.375 233.582C344.852 233.316 344.254 233.094 343.582 232.914C342.91 232.734 342.207 232.645 341.473 232.645C340.418 232.645 339.5 232.887 338.719 233.371C337.945 233.855 337.344 234.535 336.914 235.41C336.492 236.277 336.281 237.301 336.281 238.48C336.281 239.598 336.434 240.59 336.738 241.457C337.043 242.316 337.523 242.992 338.18 243.484C338.836 243.969 339.691 244.211 340.746 244.211C341.262 244.211 341.695 244.188 342.047 244.141C342.406 244.086 342.742 244.031 343.055 243.977V240.402H339.809V237.379ZM356.168 229.867C358.379 229.867 359.992 230.344 361.008 231.297C362.023 232.242 362.531 233.547 362.531 235.211C362.531 235.961 362.418 236.68 362.191 237.367C361.965 238.047 361.594 238.652 361.078 239.184C360.57 239.715 359.891 240.137 359.039 240.449C358.188 240.754 357.137 240.906 355.887 240.906H354.328V247H350.695V229.867H356.168ZM355.98 232.844H354.328V237.93H355.523C356.203 237.93 356.793 237.84 357.293 237.66C357.793 237.48 358.18 237.199 358.453 236.816C358.727 236.434 358.863 235.941 358.863 235.34C358.863 234.496 358.629 233.871 358.16 233.465C357.691 233.051 356.965 232.844 355.98 232.844ZM370.758 229.867C372.312 229.867 373.594 230.055 374.602 230.43C375.617 230.805 376.371 231.371 376.863 232.129C377.355 232.887 377.602 233.844 377.602 235C377.602 235.781 377.453 236.465 377.156 237.051C376.859 237.637 376.469 238.133 375.984 238.539C375.5 238.945 374.977 239.277 374.414 239.535L379.453 247H375.422L371.332 240.426H369.398V247H365.766V229.867H370.758ZM370.5 232.844H369.398V237.473H370.57C371.773 237.473 372.633 237.273 373.148 236.875C373.672 236.469 373.934 235.875 373.934 235.094C373.934 234.281 373.652 233.703 373.09 233.359C372.535 233.016 371.672 232.844 370.5 232.844ZM391.723 242.242C391.723 243.258 391.477 244.141 390.984 244.891C390.492 245.641 389.773 246.219 388.828 246.625C387.891 247.031 386.75 247.234 385.406 247.234C384.812 247.234 384.23 247.195 383.66 247.117C383.098 247.039 382.555 246.926 382.031 246.777C381.516 246.621 381.023 246.43 380.555 246.203V242.828C381.367 243.188 382.211 243.512 383.086 243.801C383.961 244.09 384.828 244.234 385.688 244.234C386.281 244.234 386.758 244.156 387.117 244C387.484 243.844 387.75 243.629 387.914 243.355C388.078 243.082 388.16 242.77 388.16 242.418C388.16 241.988 388.016 241.621 387.727 241.316C387.438 241.012 387.039 240.727 386.531 240.461C386.031 240.195 385.465 239.91 384.832 239.605C384.434 239.418 384 239.191 383.531 238.926C383.062 238.652 382.617 238.32 382.195 237.93C381.773 237.539 381.426 237.066 381.152 236.512C380.887 235.949 380.754 235.277 380.754 234.496C380.754 233.473 380.988 232.598 381.457 231.871C381.926 231.145 382.594 230.59 383.461 230.207C384.336 229.816 385.367 229.621 386.555 229.621C387.445 229.621 388.293 229.727 389.098 229.938C389.91 230.141 390.758 230.438 391.641 230.828L390.469 233.652C389.68 233.332 388.973 233.086 388.348 232.914C387.723 232.734 387.086 232.645 386.438 232.645C385.984 232.645 385.598 232.719 385.277 232.867C384.957 233.008 384.715 233.211 384.551 233.477C384.387 233.734 384.305 234.035 384.305 234.379C384.305 234.785 384.422 235.129 384.656 235.41C384.898 235.684 385.258 235.949 385.734 236.207C386.219 236.465 386.82 236.766 387.539 237.109C388.414 237.523 389.16 237.957 389.777 238.41C390.402 238.855 390.883 239.383 391.219 239.992C391.555 240.594 391.723 241.344 391.723 242.242Z" fill="#CC092F"/>
<path d="M67.18 275.824H64.42V274.888H70.924V275.824H68.164V283H67.18V275.824ZM72.2714 276.76H73.2314V283H72.2714V276.76ZM72.7634 275.596C72.5874 275.596 72.4394 275.54 72.3194 275.428C72.1994 275.308 72.1394 275.16 72.1394 274.984C72.1394 274.8 72.1954 274.652 72.3074 274.54C72.4274 274.42 72.5794 274.36 72.7634 274.36C72.9394 274.36 73.0874 274.42 73.2074 274.54C73.3274 274.652 73.3874 274.8 73.3874 274.984C73.3874 275.16 73.3274 275.308 73.2074 275.428C73.0874 275.54 72.9394 275.596 72.7634 275.596ZM75.6364 276.76L75.9124 277.672C76.5124 276.984 77.1604 276.64 77.8564 276.64C78.7364 276.64 79.3444 276.984 79.6804 277.672C79.9524 277.36 80.2724 277.112 80.6404 276.928C81.0164 276.736 81.4084 276.64 81.8164 276.64C82.4964 276.64 83.0204 276.852 83.3884 277.276C83.7644 277.7 83.9524 278.316 83.9524 279.124V283H83.0164V279.232C83.0164 278.088 82.5524 277.516 81.6244 277.516C81.3044 277.516 80.9964 277.604 80.7004 277.78C80.4044 277.948 80.1484 278.18 79.9324 278.476C79.9644 278.66 79.9804 278.876 79.9804 279.124V283H79.0444V279.232C79.0444 278.088 78.5844 277.516 77.6644 277.516C77.0324 277.516 76.4764 277.896 75.9964 278.656V283H75.0364V276.76H75.6364ZM88.3662 283.12C87.7502 283.12 87.2142 282.976 86.7582 282.688C86.3022 282.392 85.9542 281.996 85.7142 281.5C85.4742 281.004 85.3542 280.456 85.3542 279.856C85.3542 279.256 85.4742 278.712 85.7142 278.224C85.9622 277.728 86.3022 277.34 86.7342 277.06C87.1742 276.78 87.6742 276.64 88.2342 276.64C88.7862 276.64 89.2662 276.776 89.6742 277.048C90.0822 277.32 90.3942 277.7 90.6102 278.188C90.8262 278.676 90.9342 279.232 90.9342 279.856V280.18H86.3022C86.3422 280.78 86.5502 281.28 86.9262 281.68C87.3102 282.072 87.7982 282.268 88.3902 282.268C89.0462 282.268 89.6022 282.032 90.0582 281.56L90.6822 282.124C90.3862 282.428 90.0422 282.672 89.6502 282.856C89.2662 283.032 88.8382 283.12 88.3662 283.12ZM89.9622 279.364C89.9222 278.772 89.7502 278.308 89.4462 277.972C89.1422 277.636 88.7262 277.468 88.1982 277.468C87.6862 277.468 87.2622 277.64 86.9262 277.984C86.5982 278.328 86.3942 278.788 86.3142 279.364H89.9622ZM94.3116 283.072C93.6716 283.072 93.1796 282.88 92.8356 282.496C92.4996 282.112 92.3316 281.564 92.3316 280.852V274.276L93.2916 274.084V280.9C93.2916 281.332 93.3876 281.664 93.5796 281.896C93.7716 282.128 94.0516 282.244 94.4196 282.244H94.6956V283.072H94.3116ZM95.955 276.76H96.915V283H95.955V276.76ZM96.447 275.596C96.271 275.596 96.123 275.54 96.003 275.428C95.883 275.308 95.823 275.16 95.823 274.984C95.823 274.8 95.879 274.652 95.991 274.54C96.111 274.42 96.263 274.36 96.447 274.36C96.623 274.36 96.771 274.42 96.891 274.54C97.011 274.652 97.071 274.8 97.071 274.984C97.071 275.16 97.011 275.308 96.891 275.428C96.771 275.54 96.623 275.596 96.447 275.596ZM99.32 276.76L99.596 277.684C99.876 277.356 100.196 277.1 100.556 276.916C100.924 276.732 101.308 276.64 101.708 276.64C102.476 276.64 103.06 276.884 103.46 277.372C103.86 277.852 104.06 278.536 104.06 279.424V283H103.1V279.58C103.1 278.868 102.98 278.348 102.74 278.02C102.508 277.684 102.12 277.516 101.576 277.516C101.208 277.516 100.86 277.616 100.532 277.816C100.204 278.016 99.92 278.292 99.68 278.644V283H98.72V276.76H99.32ZM108.476 283.12C107.86 283.12 107.324 282.976 106.868 282.688C106.412 282.392 106.064 281.996 105.824 281.5C105.584 281.004 105.464 280.456 105.464 279.856C105.464 279.256 105.584 278.712 105.824 278.224C106.072 277.728 106.412 277.34 106.844 277.06C107.284 276.78 107.784 276.64 108.344 276.64C108.896 276.64 109.376 276.776 109.784 277.048C110.192 277.32 110.504 277.7 110.72 278.188C110.936 278.676 111.044 279.232 111.044 279.856V280.18H106.412C106.452 280.78 106.66 281.28 107.036 281.68C107.42 282.072 107.908 282.268 108.5 282.268C109.156 282.268 109.712 282.032 110.168 281.56L110.792 282.124C110.496 282.428 110.152 282.672 109.76 282.856C109.376 283.032 108.948 283.12 108.476 283.12ZM110.072 279.364C110.032 278.772 109.86 278.308 109.556 277.972C109.252 277.636 108.836 277.468 108.308 277.468C107.796 277.468 107.372 277.64 107.036 277.984C106.708 278.328 106.504 278.788 106.424 279.364H110.072ZM113.137 278.08C112.937 278.08 112.773 278.016 112.645 277.888C112.525 277.752 112.465 277.584 112.465 277.384C112.465 277.176 112.525 277.008 112.645 276.88C112.773 276.752 112.937 276.688 113.137 276.688C113.345 276.688 113.513 276.752 113.641 276.88C113.769 277.008 113.833 277.176 113.833 277.384C113.833 277.584 113.769 277.752 113.641 277.888C113.513 278.016 113.345 278.08 113.137 278.08ZM113.137 283.108C112.937 283.108 112.773 283.044 112.645 282.916C112.525 282.78 112.465 282.612 112.465 282.412C112.465 282.204 112.525 282.036 112.645 281.908C112.773 281.78 112.937 281.716 113.137 281.716C113.345 281.716 113.513 281.78 113.641 281.908C113.769 282.036 113.833 282.204 113.833 282.412C113.833 282.612 113.769 282.78 113.641 282.916C113.513 283.044 113.345 283.108 113.137 283.108Z" fill="#4D4E53"/>
<path d="M120.104 281.224C120.648 281.224 121.072 281.064 121.376 280.744C121.68 280.424 121.832 279.972 121.832 279.388V274.888H123.716V279.496C123.716 280.64 123.42 281.512 122.828 282.112C122.244 282.704 121.412 283 120.332 283H119.468V281.224H120.104ZM127.627 283.144C126.867 283.144 126.283 282.896 125.875 282.4C125.475 281.896 125.275 281.192 125.275 280.288V276.7H127.075V280.06C127.075 280.58 127.155 280.96 127.315 281.2C127.483 281.432 127.775 281.548 128.191 281.548C128.439 281.548 128.675 281.48 128.899 281.344C129.123 281.208 129.319 281.016 129.487 280.768V276.7H131.299V283H129.967L129.703 282.184C129.111 282.824 128.419 283.144 127.627 283.144ZM135.198 283.096C134.422 283.096 133.83 282.876 133.422 282.436C133.014 281.988 132.81 281.344 132.81 280.504V274.324L134.622 274.06V280.504C134.622 280.848 134.706 281.116 134.874 281.308C135.042 281.5 135.282 281.596 135.594 281.596H135.774V283.096H135.198ZM138.678 274.06V277.312C139.222 276.808 139.85 276.556 140.562 276.556C141.314 276.556 141.898 276.808 142.314 277.312C142.73 277.816 142.938 278.52 142.938 279.424V283H141.126V279.64C141.126 279.128 141.038 278.752 140.862 278.512C140.694 278.272 140.406 278.152 139.998 278.152C139.75 278.152 139.51 278.224 139.278 278.368C139.046 278.504 138.846 278.696 138.678 278.944V283H136.866V274.324L138.678 274.06ZM147.425 283.144C146.801 283.144 146.241 283.008 145.745 282.736C145.257 282.456 144.873 282.068 144.593 281.572C144.313 281.068 144.173 280.488 144.173 279.832C144.173 279.2 144.313 278.636 144.593 278.14C144.881 277.644 145.269 277.256 145.757 276.976C146.253 276.696 146.809 276.556 147.425 276.556C148.049 276.556 148.609 276.696 149.105 276.976C149.601 277.248 149.989 277.636 150.269 278.14C150.557 278.636 150.701 279.204 150.701 279.844C150.701 280.484 150.557 281.056 150.269 281.56C149.989 282.064 149.597 282.456 149.093 282.736C148.597 283.008 148.041 283.144 147.425 283.144ZM147.413 281.584C147.877 281.584 148.245 281.428 148.517 281.116C148.789 280.796 148.925 280.372 148.925 279.844C148.925 279.324 148.789 278.908 148.517 278.596C148.253 278.276 147.893 278.116 147.437 278.116C146.981 278.116 146.617 278.272 146.345 278.584C146.081 278.896 145.949 279.312 145.949 279.832C145.949 280.368 146.081 280.796 146.345 281.116C146.609 281.428 146.965 281.584 147.413 281.584ZM154.671 274.18H156.615L152.871 284.8H150.927L154.671 274.18ZM160.107 279.232C160.515 278.848 160.803 278.548 160.971 278.332C161.147 278.108 161.235 277.888 161.235 277.672C161.235 277.352 161.135 277.112 160.935 276.952C160.743 276.784 160.459 276.7 160.083 276.7C159.787 276.7 159.479 276.776 159.159 276.928C158.847 277.08 158.547 277.3 158.259 277.588L157.167 276.34C158.071 275.436 159.103 274.984 160.263 274.984C160.823 274.984 161.319 275.084 161.751 275.284C162.183 275.476 162.515 275.756 162.747 276.124C162.987 276.484 163.107 276.9 163.107 277.372C163.107 277.796 163.003 278.196 162.795 278.572C162.587 278.948 162.271 279.34 161.847 279.748L160.155 281.368H163.107V283H157.395V281.812L160.107 279.232ZM167.559 283.144C166.903 283.144 166.327 282.98 165.831 282.652C165.343 282.316 164.967 281.84 164.703 281.224C164.439 280.608 164.307 279.884 164.307 279.052C164.307 278.252 164.439 277.544 164.703 276.928C164.975 276.312 165.355 275.836 165.843 275.5C166.339 275.156 166.911 274.984 167.559 274.984C168.207 274.984 168.775 275.152 169.263 275.488C169.759 275.824 170.139 276.3 170.403 276.916C170.675 277.524 170.811 278.236 170.811 279.052C170.811 279.876 170.675 280.596 170.403 281.212C170.139 281.828 169.759 282.304 169.263 282.64C168.775 282.976 168.207 283.144 167.559 283.144ZM167.559 281.404C168.023 281.404 168.371 281.196 168.603 280.78C168.835 280.364 168.951 279.788 168.951 279.052C168.951 278.324 168.839 277.752 168.615 277.336C168.399 276.92 168.055 276.712 167.583 276.712C167.111 276.712 166.755 276.924 166.515 277.348C166.283 277.764 166.167 278.332 166.167 279.052C166.167 279.78 166.279 280.356 166.503 280.78C166.727 281.196 167.079 281.404 167.559 281.404ZM174.486 279.232C174.894 278.848 175.182 278.548 175.35 278.332C175.526 278.108 175.614 277.888 175.614 277.672C175.614 277.352 175.514 277.112 175.314 276.952C175.122 276.784 174.838 276.7 174.462 276.7C174.166 276.7 173.858 276.776 173.538 276.928C173.226 277.08 172.926 277.3 172.638 277.588L171.546 276.34C172.45 275.436 173.482 274.984 174.642 274.984C175.202 274.984 175.698 275.084 176.13 275.284C176.562 275.476 176.894 275.756 177.126 276.124C177.366 276.484 177.486 276.9 177.486 277.372C177.486 277.796 177.382 278.196 177.174 278.572C176.966 278.948 176.65 279.34 176.226 279.748L174.534 281.368H177.486V283H171.774V281.812L174.486 279.232ZM181.24 283.144C180.68 283.144 180.156 283.044 179.668 282.844C179.18 282.636 178.776 282.356 178.456 282.004L179.464 280.888C179.944 281.328 180.508 281.548 181.156 281.548C181.548 281.548 181.86 281.46 182.092 281.284C182.332 281.1 182.452 280.856 182.452 280.552C182.452 280.24 182.352 280.004 182.152 279.844C181.952 279.676 181.656 279.592 181.264 279.592H178.96V278.464L179.632 275.116H183.808V276.712H180.772L180.556 278.044H181.384C182.32 278.044 183.04 278.256 183.544 278.68C184.056 279.096 184.312 279.704 184.312 280.504C184.312 281.312 184.036 281.956 183.484 282.436C182.932 282.908 182.184 283.144 181.24 283.144ZM188.437 278.5H192.613V280.12H188.437V278.5ZM197.256 274.888H198.948L201.588 279.772L204.312 274.888H205.98V283H204.156V278.164L202.32 281.536H200.832L199.032 278.188V283H197.256V274.888ZM209.494 283.144C208.838 283.144 208.322 282.98 207.946 282.652C207.57 282.316 207.382 281.852 207.382 281.26C207.382 280.66 207.614 280.188 208.078 279.844C208.55 279.5 209.214 279.328 210.07 279.328H211.342C211.334 278.44 210.926 277.996 210.118 277.996C209.814 277.996 209.518 278.048 209.23 278.152C208.95 278.256 208.694 278.408 208.462 278.608L207.586 277.576C207.938 277.256 208.338 277.008 208.786 276.832C209.242 276.648 209.706 276.556 210.178 276.556C211.098 276.556 211.794 276.804 212.266 277.3C212.746 277.796 212.986 278.516 212.986 279.46V283H211.738L211.51 282.28C211.222 282.552 210.906 282.764 210.562 282.916C210.218 283.068 209.862 283.144 209.494 283.144ZM209.782 281.824C210.374 281.824 210.894 281.58 211.342 281.092V280.48H210.01C209.682 280.48 209.422 280.544 209.23 280.672C209.046 280.792 208.954 280.96 208.954 281.176C208.954 281.36 209.03 281.516 209.182 281.644C209.342 281.764 209.542 281.824 209.782 281.824ZM215.812 276.7L216.088 277.552C216.704 276.912 217.48 276.592 218.416 276.592H218.572V278.092H218.344C217.936 278.092 217.548 278.168 217.18 278.32C216.812 278.464 216.516 278.68 216.292 278.968V283H214.479V276.7H215.812ZM224.859 282.076C224.371 282.628 223.763 282.968 223.035 283.096C223.243 283.352 223.347 283.644 223.347 283.972C223.347 284.428 223.171 284.784 222.819 285.04C222.467 285.296 221.991 285.424 221.391 285.424H220.971V284.284H221.343C221.567 284.284 221.739 284.24 221.859 284.152C221.987 284.064 222.051 283.936 222.051 283.768C222.051 283.632 222.027 283.516 221.979 283.42C221.939 283.332 221.867 283.22 221.763 283.084C220.987 282.948 220.375 282.596 219.927 282.028C219.479 281.46 219.255 280.728 219.255 279.832C219.255 279.216 219.391 278.66 219.663 278.164C219.943 277.668 220.327 277.276 220.815 276.988C221.311 276.7 221.863 276.556 222.471 276.556C222.943 276.556 223.383 276.652 223.791 276.844C224.199 277.036 224.531 277.292 224.787 277.612L223.779 278.692C223.603 278.508 223.415 278.368 223.215 278.272C223.023 278.168 222.799 278.116 222.543 278.116C222.087 278.116 221.719 278.276 221.439 278.596C221.167 278.908 221.031 279.32 221.031 279.832C221.031 280.352 221.171 280.776 221.451 281.104C221.731 281.424 222.091 281.584 222.531 281.584C223.019 281.584 223.463 281.384 223.863 280.984L224.859 282.076ZM228.741 283.144C228.117 283.144 227.557 283.008 227.061 282.736C226.573 282.456 226.189 282.068 225.909 281.572C225.629 281.068 225.489 280.488 225.489 279.832C225.489 279.2 225.629 278.636 225.909 278.14C226.197 277.644 226.585 277.256 227.073 276.976C227.569 276.696 228.125 276.556 228.741 276.556C229.365 276.556 229.925 276.696 230.421 276.976C230.917 277.248 231.305 277.636 231.585 278.14C231.873 278.636 232.017 279.204 232.017 279.844C232.017 280.484 231.873 281.056 231.585 281.56C231.305 282.064 230.913 282.456 230.409 282.736C229.913 283.008 229.357 283.144 228.741 283.144ZM228.729 281.584C229.193 281.584 229.561 281.428 229.833 281.116C230.105 280.796 230.241 280.372 230.241 279.844C230.241 279.324 230.105 278.908 229.833 278.596C229.569 278.276 229.209 278.116 228.753 278.116C228.297 278.116 227.933 278.272 227.661 278.584C227.397 278.896 227.265 279.312 227.265 279.832C227.265 280.368 227.397 280.796 227.661 281.116C227.925 281.428 228.281 281.584 228.729 281.584ZM235.987 274.18H237.931L234.187 284.8H232.243L235.987 274.18ZM241.423 279.232C241.831 278.848 242.119 278.548 242.287 278.332C242.463 278.108 242.551 277.888 242.551 277.672C242.551 277.352 242.451 277.112 242.251 276.952C242.059 276.784 241.775 276.7 241.399 276.7C241.103 276.7 240.795 276.776 240.475 276.928C240.163 277.08 239.863 277.3 239.575 277.588L238.483 276.34C239.387 275.436 240.419 274.984 241.579 274.984C242.139 274.984 242.635 275.084 243.067 275.284C243.499 275.476 243.831 275.756 244.063 276.124C244.303 276.484 244.423 276.9 244.423 277.372C244.423 277.796 244.319 278.196 244.111 278.572C243.903 278.948 243.587 279.34 243.163 279.748L241.471 281.368H244.423V283H238.711V281.812L241.423 279.232ZM248.875 283.144C248.219 283.144 247.643 282.98 247.147 282.652C246.659 282.316 246.283 281.84 246.019 281.224C245.755 280.608 245.623 279.884 245.623 279.052C245.623 278.252 245.755 277.544 246.019 276.928C246.291 276.312 246.671 275.836 247.159 275.5C247.655 275.156 248.227 274.984 248.875 274.984C249.523 274.984 250.091 275.152 250.579 275.488C251.075 275.824 251.455 276.3 251.719 276.916C251.991 277.524 252.127 278.236 252.127 279.052C252.127 279.876 251.991 280.596 251.719 281.212C251.455 281.828 251.075 282.304 250.579 282.64C250.091 282.976 249.523 283.144 248.875 283.144ZM248.875 281.404C249.339 281.404 249.687 281.196 249.919 280.78C250.151 280.364 250.267 279.788 250.267 279.052C250.267 278.324 250.155 277.752 249.931 277.336C249.715 276.92 249.371 276.712 248.899 276.712C248.427 276.712 248.071 276.924 247.831 277.348C247.599 277.764 247.483 278.332 247.483 279.052C247.483 279.78 247.595 280.356 247.819 280.78C248.043 281.196 248.395 281.404 248.875 281.404ZM255.802 279.232C256.21 278.848 256.498 278.548 256.666 278.332C256.842 278.108 256.93 277.888 256.93 277.672C256.93 277.352 256.83 277.112 256.63 276.952C256.438 276.784 256.154 276.7 255.778 276.7C255.482 276.7 255.174 276.776 254.854 276.928C254.542 277.08 254.242 277.3 253.954 277.588L252.862 276.34C253.766 275.436 254.798 274.984 255.958 274.984C256.518 274.984 257.014 275.084 257.446 275.284C257.878 275.476 258.21 275.756 258.442 276.124C258.682 276.484 258.802 276.9 258.802 277.372C258.802 277.796 258.698 278.196 258.49 278.572C258.282 278.948 257.966 279.34 257.542 279.748L255.85 281.368H258.802V283H253.09V281.812L255.802 279.232ZM263.218 283.144C262.57 283.144 262.006 282.992 261.526 282.688C261.054 282.384 260.69 281.944 260.434 281.368C260.178 280.792 260.05 280.104 260.05 279.304C260.05 278.456 260.194 277.704 260.482 277.048C260.77 276.392 261.174 275.884 261.694 275.524C262.222 275.164 262.83 274.984 263.518 274.984C264.022 274.984 264.49 275.076 264.922 275.26C265.362 275.436 265.746 275.712 266.074 276.088L265.078 277.204C264.854 276.98 264.622 276.82 264.382 276.724C264.15 276.628 263.898 276.58 263.626 276.58C263.138 276.58 262.734 276.74 262.414 277.06C262.102 277.372 261.898 277.824 261.802 278.416C262.354 278.16 262.926 278.032 263.518 278.032C264.038 278.032 264.494 278.132 264.886 278.332C265.278 278.532 265.578 278.816 265.786 279.184C266.002 279.544 266.11 279.956 266.11 280.42C266.11 280.94 265.99 281.408 265.75 281.824C265.51 282.232 265.17 282.556 264.73 282.796C264.298 283.028 263.794 283.144 263.218 283.144ZM263.206 281.584C263.614 281.584 263.93 281.488 264.154 281.296C264.378 281.096 264.49 280.824 264.49 280.48C264.49 280.176 264.378 279.928 264.154 279.736C263.93 279.544 263.622 279.448 263.23 279.448C262.662 279.448 262.17 279.54 261.754 279.724C261.786 280.324 261.926 280.784 262.174 281.104C262.43 281.424 262.774 281.584 263.206 281.584Z" fill="#4D4E53"/>
<path d="M119.004 49.0125V51.1576C118.573 51.0358 118.114 51.0171 117.721 51.0171C115.023 51.0171 113.196 52.825 113.196 55.7194C113.196 58.6701 114.985 60.3093 117.786 60.3093C119.069 60.3093 120.325 60.1314 121.449 59.7567V47.0267C120.756 47.2796 120.034 47.6356 119.425 48.132C119.098 48.3849 119.004 48.6472 119.004 49.0125ZM119.004 58.183C118.592 58.3048 118.292 58.3235 117.964 58.3235C116.353 58.3235 115.716 57.265 115.716 55.7288C115.716 54.0146 116.344 52.9748 117.936 52.9748C118.404 52.9748 118.704 53.031 118.995 53.1153V58.183H119.004ZM108.082 50.989C107.117 50.9703 106.274 51.0827 105.44 51.2887C105.281 51.8414 105.3 52.647 105.44 53.2184C106.461 52.9842 107.033 52.9655 107.688 52.9655C108.944 52.9655 109.562 53.4807 109.562 54.5204V54.6235C109.187 54.586 108.737 54.5485 108.419 54.5485C106.33 54.5485 104.541 55.2979 104.541 57.3025C104.541 59.5693 106.152 60.3374 108.494 60.3374C109.599 60.3374 110.798 60.1407 111.894 59.8035V54.7078C111.894 52.2442 110.583 51.0452 108.082 50.989ZM109.552 58.3048C109.412 58.3422 108.803 58.4078 108.513 58.4078C107.389 58.4078 106.78 58.0706 106.78 57.2837C106.78 56.4969 107.389 56.1784 108.513 56.1784C108.887 56.1784 109.318 56.2159 109.552 56.2346V58.3048ZM76.4863 53.1247L74.7065 54.1457V60.2344H76.6081C76.786 60.2344 76.9266 60.0939 76.9266 59.9159V53.3495C76.9266 53.106 76.683 53.0123 76.4863 53.1247ZM72.7863 55.4946V60.0377C72.7863 60.1501 72.8799 60.2438 72.9923 60.2438H74.2101V54.4361L72.9923 55.1387C72.8612 55.2136 72.7863 55.326 72.7863 55.4946ZM74.0602 44.3289C72.8237 44.3289 71.4749 44.4413 70.1354 44.6662C71.4842 42.9332 73.6293 41.8092 76.0179 41.8092C77.779 41.8092 79.5494 42.4742 80.7296 43.4672C80.9451 43.6451 81.1043 43.6639 81.2729 43.4953C81.4415 43.336 81.4228 43.1674 81.2355 42.9613C79.6992 41.1722 77.423 39.9545 74.7346 40.0013C71.2219 40.0669 68.2432 42.2869 67.1004 45.3687C66.0606 45.6965 65.1052 46.0806 64.2621 46.549C64.028 46.6801 63.953 46.8393 64.028 47.0361C64.1123 47.214 64.2715 47.2796 64.5057 47.214C65.227 46.9986 65.9763 46.8206 66.7444 46.6614C66.6601 47.0642 66.6133 47.4857 66.6133 47.9259C66.5477 50.7642 68.0652 53.4526 70.407 54.9326C70.6412 55.0824 70.8379 55.0825 70.969 54.9045C71.1002 54.7265 71.0814 54.5673 70.8847 54.3893C69.4047 53.0591 68.5804 51.0827 68.5804 49.1156C68.5804 48.1226 68.7771 47.1672 69.1612 46.3054C69.9386 46.2398 70.7723 46.193 71.6997 46.193C77.6947 46.193 82.7623 48.1695 82.7623 50.7642C82.7623 52.0756 81.0949 53.387 79.1185 54.2675C78.6407 54.483 78.5939 54.6235 78.6595 54.8389C78.725 55.0356 78.9405 55.1012 79.184 55.0169C82.6405 53.8835 85.2633 52.0194 85.2633 49.7619C85.2727 46.6988 80.3268 44.3289 74.0602 44.3289ZM93.3753 51.0265C92.6634 51.0265 91.9796 51.1857 91.5487 51.4012V47.0361C90.8555 47.289 90.1343 47.6449 89.5254 48.1414C89.2069 48.3943 89.1132 48.6566 89.1132 49.0313V59.8129C89.7596 60.0845 91.0803 60.3281 92.3449 60.3281C95.5298 60.3281 97.3657 58.3797 97.3657 55.5695C97.3564 52.7594 96.0543 51.0265 93.3753 51.0265ZM92.4761 58.3235C92.2231 58.3235 91.8297 58.3235 91.5487 58.2205V53.3214C91.8859 53.1434 92.3543 53.0498 92.9632 53.0498C94.1809 53.0498 94.8366 53.8928 94.8366 55.4852C94.8366 57.162 94.0685 58.3235 92.4761 58.3235ZM103.576 51.1014C102.415 51.1014 101.75 51.551 101.113 52.3566C101.056 51.9444 100.972 51.6072 100.841 51.1951C100.607 51.1201 100.195 51.092 99.8387 51.092C99.5014 51.092 99.0705 51.1295 98.8551 51.1951V60.1126C99.1549 60.1876 99.6419 60.2063 100.073 60.2063C100.485 60.2063 101.038 60.1688 101.291 60.1126V55.7663C101.291 54.0333 102.199 53.106 103.417 53.106C103.632 53.106 104.007 53.106 104.222 53.1434C104.363 52.572 104.382 51.7477 104.26 51.1763C104.119 51.1389 103.773 51.1014 103.576 51.1014ZM191.581 51.3731V58.8668C191.056 58.9886 190.466 59.0822 189.745 59.0822C188.077 59.0822 187.197 58.183 187.197 56.2252V51.3731C187 51.3356 186.747 51.2981 186.476 51.2981C186.204 51.2981 185.904 51.3356 185.698 51.3731V56.2814C185.698 58.9417 187.103 60.2906 189.651 60.2906C190.822 60.2906 192.021 60.0752 193.07 59.7848V51.3731C192.873 51.3356 192.602 51.2981 192.33 51.2981C192.068 51.3075 191.777 51.3356 191.581 51.3731ZM198.953 51.3075C197.997 51.3075 197.192 51.7571 196.583 52.6001C196.564 52.188 196.508 51.7571 196.442 51.3824C196.264 51.3262 196.011 51.3075 195.815 51.3075C195.581 51.3075 195.346 51.3449 195.168 51.3824V60.1688C195.365 60.2063 195.618 60.2438 195.89 60.2438C196.161 60.2438 196.461 60.2063 196.667 60.1688V55.2042C196.667 53.6024 197.669 52.5252 198.953 52.5252C199.187 52.5252 199.459 52.5252 199.637 52.5814C199.693 52.366 199.711 52.1318 199.711 51.9351C199.711 51.7571 199.693 51.5604 199.655 51.3731C199.421 51.3356 199.187 51.3075 198.953 51.3075ZM176.303 55.8131C176.303 58.3797 177.848 59.9627 180.04 59.9627C180.921 59.9627 181.548 59.8035 182.176 59.5506V60.2157C182.176 62.0516 181.239 62.801 179.553 62.801C178.598 62.801 177.736 62.6043 176.93 62.2296C176.893 62.4263 176.874 62.6418 176.874 62.8197C176.874 63.0352 176.893 63.2319 176.93 63.4286C177.755 63.8033 178.673 64 179.713 64C182.214 64 183.665 62.5949 183.665 60.0471V51.729C182.982 51.4574 181.904 51.2232 180.827 51.2232C177.923 51.2325 176.303 53.1715 176.303 55.8131ZM182.176 58.4078C181.548 58.6607 180.986 58.7825 180.284 58.7825C178.776 58.7825 177.802 57.6303 177.802 55.8506C177.802 53.7429 178.879 52.4315 180.734 52.4315C181.324 52.4315 181.811 52.4877 182.176 52.6095V58.4078ZM213.547 55.2417L212.685 54.8483C211.823 54.4548 211.355 54.2019 211.355 53.5369C211.355 52.7126 212.16 52.4409 213.06 52.4409C213.837 52.4409 214.483 52.5814 215.158 52.8156C215.195 52.6189 215.214 52.4034 215.214 52.2067C215.214 52.0288 215.195 51.832 215.158 51.6634C214.652 51.4105 213.734 51.2325 212.854 51.2325C211.233 51.2325 209.865 52.1505 209.865 53.4994C209.865 54.6516 210.353 55.3166 211.936 56.0004L212.601 56.2908C213.622 56.7404 214.024 57.1151 214.024 57.8177C214.024 58.7731 213.125 59.0916 212.263 59.0916C211.345 59.0916 210.54 58.9136 209.725 58.5858C209.669 58.7637 209.65 58.9605 209.65 59.1759C209.65 59.3726 209.669 59.5693 209.725 59.766C210.409 60.1033 211.289 60.2906 212.46 60.2906C214.146 60.2906 215.514 59.3351 215.514 57.827C215.523 56.5906 214.896 55.8506 213.547 55.2417ZM171.488 51.2325C169.137 51.2325 167.638 53.0685 167.638 55.7944C167.638 58.567 169.184 60.2906 171.844 60.2906C172.818 60.2906 173.802 60.0939 174.411 59.8222C174.448 59.6443 174.467 59.4476 174.467 59.2508C174.467 59.0541 174.448 58.8574 174.411 58.6794C173.643 58.9324 172.846 59.1103 171.947 59.1103C170.149 59.1103 169.165 57.9582 169.071 56.0941H174.879C174.917 55.8787 174.935 55.3728 174.935 55.1199C174.935 52.7219 173.53 51.2325 171.488 51.2325ZM169.09 54.97C169.212 53.3495 170.205 52.3847 171.46 52.3847C172.79 52.3847 173.53 53.4619 173.53 54.97H169.09ZM204.564 51.2325C202.175 51.2325 200.686 52.8999 200.686 55.7756C200.686 58.6139 202.156 60.3093 204.554 60.3093C206.98 60.3093 208.451 58.6045 208.451 55.7756C208.442 52.8812 207.018 51.2325 204.564 51.2325ZM204.545 59.101C202.999 59.101 202.194 57.9113 202.194 55.7756C202.194 53.6024 203.037 52.4315 204.564 52.4315C206.128 52.4315 206.934 53.565 206.934 55.7756C206.934 57.9582 206.109 59.101 204.545 59.101ZM150.88 50.989C148.145 50.989 146.609 52.8624 146.609 55.6726C146.609 58.5296 148.22 60.3187 150.88 60.3187C153.634 60.3187 155.171 58.4921 155.171 55.6726C155.171 52.8343 153.634 50.989 150.88 50.989ZM150.88 58.3422C149.522 58.3422 149.11 57.2369 149.11 55.6632C149.11 54.127 149.522 52.9467 150.88 52.9467C152.276 52.9467 152.67 54.0895 152.67 55.6632C152.679 57.3212 152.22 58.3422 150.88 58.3422ZM136.455 54.8202L135.471 54.408C134.9 54.1738 134.563 53.9771 134.563 53.6024C134.563 53.031 135.078 52.9093 135.743 52.9093C136.408 52.9093 137.101 52.9842 138.047 53.284C138.169 52.6376 138.169 52.0288 138.047 51.4574C137.457 51.1389 136.352 50.989 135.387 50.989C133.495 50.989 132.062 52.01 132.062 53.5462C132.062 54.9232 132.652 55.6164 134.31 56.2814L135.078 56.5999C135.809 56.8997 136.024 57.0683 136.024 57.546C136.024 58.2579 135.312 58.3703 134.722 58.3703C133.738 58.3703 132.989 58.1736 132.043 57.8364C131.884 58.4078 131.884 59.1572 132.043 59.7473C132.849 60.1782 133.954 60.3187 135.115 60.3187C136.989 60.3187 138.478 59.3351 138.478 57.5648C138.488 56.1035 137.851 55.4103 136.455 54.8202ZM144.052 58.3048C142.834 58.3048 142.028 57.3399 142.028 55.6445C142.028 54.0333 142.675 52.9842 144.07 52.9842C144.661 52.9842 145.073 53.0872 145.625 53.3027C145.785 52.75 146.075 52.1224 146.487 51.5885C145.719 51.1951 144.97 50.9796 143.752 50.9796C141.054 50.9796 139.499 52.8905 139.499 55.6445C139.499 58.5015 141.092 60.3093 143.846 60.3093C144.848 60.3093 145.775 60.1314 146.525 59.7192C146.187 59.2883 145.813 58.6982 145.597 58.005C144.923 58.286 144.623 58.3048 144.052 58.3048ZM164.35 55.2417L163.489 54.8483C162.627 54.4548 162.158 54.2019 162.158 53.5369C162.158 52.7126 162.964 52.4409 163.863 52.4409C164.631 52.4409 165.287 52.5814 165.971 52.8156C166.008 52.6189 166.027 52.4034 166.027 52.2067C166.027 52.0288 166.008 51.832 165.971 51.6634C165.465 51.4105 164.547 51.2325 163.667 51.2325C162.046 51.2325 160.678 52.1505 160.678 53.4994C160.678 54.6516 161.166 55.3166 162.749 56.0004L163.414 56.2908C164.435 56.7404 164.837 57.1151 164.837 57.8177C164.837 58.7731 163.938 59.0916 163.076 59.0916C162.158 59.0916 161.353 58.9136 160.538 58.5858C160.482 58.7637 160.463 58.9605 160.463 59.1759C160.463 59.3726 160.482 59.5693 160.538 59.766C161.222 60.1033 162.102 60.2906 163.273 60.2906C164.959 60.2906 166.327 59.3351 166.327 57.827C166.327 56.5906 165.699 55.8506 164.35 55.2417ZM127.069 50.989C124.427 50.989 122.816 52.7594 122.816 55.7101C122.816 58.6607 124.531 60.3187 127.462 60.3187C128.465 60.3187 129.551 60.1407 130.235 59.8035C130.376 59.2321 130.376 58.4827 130.235 57.9113C129.327 58.1643 128.558 58.3235 127.715 58.3235C126.357 58.3235 125.411 57.8083 125.214 56.3751H130.76C130.835 56.1597 130.853 55.429 130.853 55.1387C130.872 52.4784 129.373 50.989 127.069 50.989ZM125.224 54.586C125.402 53.4994 126.048 52.8531 127.032 52.8531C128.137 52.8531 128.568 53.6024 128.605 54.586H125.224Z" fill="#CC092F"/>
</g>
<defs>
<linearGradient id="paint0_linear_35264_79521" x1="363" y1="122.5" x2="353" y2="122.5" gradientUnits="userSpaceOnUse">
<stop stop-color="#E8E9EC" stop-opacity="0"/>
<stop offset="1" stop-color="#E8E9EC"/>
</linearGradient>
<clipPath id="clip0_35264_79521">
<rect width="620" height="320" fill="white"/>
</clipPath>
</defs>
</svg>
